<?xml version="1.0" encoding="utf-8"?>
<!-- Generator: Adobe Illustrator 24.0.1, SVG Export Plug-In . SVG Version: 6.00 Build 0)  -->
<svg version="1.1" id="Layer_1" xmlns="http://www.w3.org/2000/svg" xmlns:xlink="http://www.w3.org/1999/xlink" x="0px" y="0px"
	 viewBox="0 0 128.5 128" style="enable-background:new 0 0 128.5 128;" xml:space="preserve">
<style type="text/css">
	.st0{fill:#E07A5F;}
</style>
<g>
	<path class="st0" d="M128.5,61.8c0,1.5,0,3,0,4.5c-0.1,0.7-0.2,1.3-0.3,2c-0.2,1.9-0.3,3.8-0.6,5.7c-1.9,11.5-6.4,21.8-13.8,30.6
		c-11.1,13.2-25.2,20.9-42.3,22.9c-1.6,0.2-3.1,0.4-4.7,0.5c-1.5,0-3,0-4.5,0c-1.9-0.2-3.9-0.3-5.8-0.6
		c-11.6-1.6-22.1-5.8-31.3-13.2C11.2,103.1,3.1,88.7,1,70.9c-0.2-1.5-0.3-3-0.5-4.4c0-1.7,0-3.3,0-5c0.1-0.6,0.2-1.1,0.3-1.7
		c0.4-2.9,0.5-5.8,1.1-8.6c3.6-16.8,12.5-30.1,26.6-39.9c8.7-6,18.4-9.6,28.9-10.7C59,0.4,60.6,0.2,62.3,0c1.5,0,3,0,4.5,0
		c0.6,0.1,1.1,0.2,1.7,0.3c2,0.2,4,0.3,6,0.6C87.5,3,98.9,8.6,108.5,17.8c11.2,10.7,17.7,23.8,19.5,39.3
		C128.1,58.6,128.3,60.2,128.5,61.8z M56.9,64.1c-1.1,1-2,1.9-3,2.8c-4.3,4.3-8.6,8.6-12.9,12.9c-1.6,1.6-2.2,3.5-1.4,5.7
		c0.7,2.1,2.3,3.4,4.5,3.7c1.9,0.3,3.5-0.5,4.8-1.8c4.9-4.9,9.8-9.8,14.7-14.7c0.3-0.3,0.6-0.6,1.1-1.1c0.4,0.5,0.6,0.9,0.9,1.2
		c4.9,4.9,9.8,9.8,14.7,14.7c2.1,2,4.7,2.4,6.9,0.9c3-1.9,3.4-5.9,0.8-8.6c-4.9-4.9-9.8-9.8-14.7-14.8c-0.3-0.3-0.6-0.7-1.1-1.2
		c0.8-0.7,1.6-1.3,2.3-2c4.5-4.5,9-9,13.5-13.5c2.5-2.5,2.4-6.1-0.1-8.2c-2.2-1.9-5.3-1.7-7.5,0.5c-4.9,4.9-9.8,9.8-14.8,14.8
		c-0.3,0.3-0.6,0.6-1,1c-2.9-3-5.8-5.8-8.6-8.7c-2.4-2.4-4.8-4.8-7.2-7.2c-1.6-1.6-3.5-2.1-5.6-1.4c-2.1,0.7-3.4,2.2-3.7,4.4
		c-0.3,1.9,0.5,3.5,1.8,4.8C46.3,53.5,51.5,58.7,56.9,64.1z"/>
</g>
</svg>
