<?xml version="1.0" encoding="utf-8"?>
<!-- Generator: Adobe Illustrator 24.0.1, SVG Export Plug-In . SVG Version: 6.00 Build 0)  -->
<svg version="1.1" id="Layer_1" xmlns="http://www.w3.org/2000/svg" xmlns:xlink="http://www.w3.org/1999/xlink" x="0px" y="0px"
	 viewBox="0 0 115.1 114" style="enable-background:new 0 0 115.1 114;" xml:space="preserve">
<style type="text/css">
	.st0{fill:#E07A5F;}
	.st1{fill:#FFFFFF;}
</style>
<g>
	<path class="st0" d="M1.3,110.5c0.1-0.3,0.3-0.6,0.4-1C5,98.1,8.2,86.7,11.5,75.4c0.3-0.9,0.8-1.9,1.5-2.5c22.7-23,45.5-46,68.3-69
		c3.7-3.7,8.6-4.5,13.1-2.1c0.9,0.5,1.7,1.1,2.4,1.8c5,5,10,10,15,15c3.6,3.7,4.3,8.5,1.7,12.9c-0.5,0.9-1.3,1.7-2,2.5
		c-23,22.8-46,45.6-69,68.4c-0.6,0.6-1.6,1.1-2.4,1.4c-11.4,3.3-22.7,6.5-34.1,9.8c-0.3,0.1-0.6,0.3-1,0.4c-0.6,0-1.2,0-1.8,0
		c-0.6-0.6-1.2-1.2-1.8-1.8C1.3,111.6,1.3,111,1.3,110.5z M42.6,94.9c17-16.8,33.7-33.4,50.4-50c-3.2-3.2-6.3-6.3-9.3-9.3
		C67.3,52,50.8,68.5,34.3,85c2.1,1,4.2,2.2,6.4,3.2c1.3,0.6,2,1.6,1.9,3.1C42.6,92.4,42.6,93.4,42.6,94.9z M70.5,22.2
		C53.8,39,37.2,55.7,20.4,72.7c1.1,0,1.9,0.1,2.6,0c2.3-0.3,3.7,0.7,4.6,2.8c0.8,1.9,1.8,3.7,2.7,5.4c16.5-16.5,33-33,49.4-49.4
		C76.7,28.5,73.6,25.4,70.5,22.2z M96.9,41c0.2-0.2,0.4-0.4,0.7-0.6c3.4-3.4,6.8-6.7,10.2-10.1c2.6-2.6,2.6-5.5,0-8.1
		c-4.9-4.9-9.8-9.8-14.7-14.7C90.6,5,87.5,5,85,7.5c-3.4,3.4-6.8,6.8-10.1,10.2c-0.2,0.2-0.4,0.5-0.6,0.7C81.9,26,89.4,33.5,96.9,41
		z M16.2,77.9c-1.1,4-2.3,7.9-3.3,11.8c-0.1,0.3,0.1,0.8,0.4,1c3.8,3.8,7.6,7.6,11.4,11.4c0.3,0.3,0.9,0.5,1.2,0.4
		c3.7-1,7.3-2.1,11-3.1c0.5-0.2,0.8-0.4,0.7-1c0-1.7,0-3.4,0-5.1c0-0.6-0.2-1-0.8-1.3c-2.5-1.2-4.9-2.5-7.3-3.6
		c-1.1-0.5-1.8-1.3-2.4-2.3c-1.2-2.5-2.4-5-3.7-7.4c-0.2-0.3-0.7-0.7-1-0.7C20.2,77.8,18.3,77.9,16.2,77.9z M10.9,96.2
		c-1.1,3.8-2.2,7.5-3.3,11.5c4-1.1,7.8-2.2,11.5-3.3C16.4,101.6,13.7,98.9,10.9,96.2z"/>
	<path class="st1" d="M1.3,112.2c0.6,0.6,1.2,1.2,1.8,1.8c-0.6,0-1.2,0-1.8,0C1.3,113.4,1.3,112.8,1.3,112.2z"/>
</g>
</svg>
