<?xml version="1.0" encoding="utf-8"?>
<!-- Generator: Adobe Illustrator 24.0.1, SVG Export Plug-In . SVG Version: 6.00 Build 0)  -->
<svg version="1.1" id="Layer_1" xmlns="http://www.w3.org/2000/svg" xmlns:xlink="http://www.w3.org/1999/xlink" x="0px" y="0px"
	 viewBox="0 0 40 40" style="enable-background:new 0 0 40 40;" xml:space="preserve">
<style type="text/css">
	.st0{fill:#FFC107;}
	.st1{fill:#FF3D00;}
	.st2{fill:#4CAF50;}
	.st3{fill:#1976D2;}
</style>
<path class="st0" d="M39.6,16.1H38V16H20v8h11.3c-1.6,4.7-6.1,8-11.3,8c-6.6,0-12-5.4-12-12S13.4,8,20,8c3.1,0,5.8,1.2,8,3l5.7-5.7
	C30,2.1,25.3,0,20,0C9,0,0,9,0,20s9,20,20,20s20-9,20-20C40,18.7,39.9,17.4,39.6,16.1z"/>
<path class="st1" d="M2.3,10.7l6.6,4.8C10.7,11.1,15,8,20,8c3.1,0,5.8,1.2,8,3l5.7-5.7C30,2.1,25.3,0,20,0C12.3,0,5.7,4.3,2.3,10.7z
	"/>
<path class="st2" d="M20,40c5.2,0,9.9-2,13.4-5.2l-6.2-5.2c-2,1.5-4.5,2.4-7.2,2.4c-5.2,0-9.6-3.3-11.3-7.9l-6.5,5
	C5.5,35.6,12.2,40,20,40z"/>
<path class="st3" d="M39.6,16.1H38V16H20v8h11.3c-0.8,2.2-2.2,4.2-4.1,5.6c0,0,0,0,0,0l6.2,5.2C33,35.2,40,30,40,20
	C40,18.7,39.9,17.4,39.6,16.1z"/>
</svg>
