<?xml version="1.0" encoding="utf-8"?>
<!-- Generator: Adobe Illustrator 24.0.1, SVG Export Plug-In . SVG Version: 6.00 Build 0)  -->
<svg version="1.1" id="Layer_1" xmlns="http://www.w3.org/2000/svg" xmlns:xlink="http://www.w3.org/1999/xlink" x="0px" y="0px"
	 viewBox="0 0 203.5 203.5" style="enable-background:new 0 0 203.5 203.5;" xml:space="preserve">
<style type="text/css">
	.st0{fill:#E07A5F;}
	.st1{fill:#F4F1DE;}
</style>
<path class="st0" d="M183.6,203.5H19.9c-11,0-19.9-8.9-19.9-19.9V19.9C0,8.9,8.9,0,19.9,0h163.7c11,0,19.9,8.9,19.9,19.9v163.7
	C203.5,194.6,194.6,203.5,183.6,203.5z"/>
<g>
	<path class="st1" d="M102,190.5c-49.9,0-88.6-38.7-88.6-88.5c0-50.7,38.6-89.1,89.4-89c49.6,0.1,88,39.1,87.9,89.2
		C190.7,151.9,151.8,190.5,102,190.5z M102.3,20c-43.5-0.5-81.7,37.6-81.9,81.5c-0.2,43.7,37.6,81.7,81.5,81.9
		c43.7,0.3,81.7-37.6,81.9-81.5C184,58.2,146.5,20.5,102.3,20z"/>
	<path class="st1" d="M119.9,171.6c-49.2,0.6-88.2-28.3-87.8-59.6c0.2-18.3,1.6-37,12.8-51.6c11.3-14.7,27.5-27,46.3-28.1
		c42.2-2.3,81.2,27.8,80.9,59.2c-0.2,18.3-0.9,37.8-13.1,51.3C147.1,156,130,164.4,119.9,171.6z M93.6,36.1
		c-14.4,9.9-28.8,17-39.5,27.8C42.4,75.8,39,92.7,41,109.5c1.9,16.2,10.3,29.9,22.8,40.2c13.1,10.7,28.9,14.8,45.7,13.2
		c17-1.6,30.8-10.8,41.2-23.5c10.6-12.9,14.6-29.4,12.5-46c-2-16.1-10-31.3-23.5-39.7C126.6,45.5,110.3,42.2,93.6,36.1z"/>
	<path class="st1" d="M77.4,91.4c-4.3-5.5-9.7-10.6-12.2-16.9c-0.7-1.7,6.8-9.7,10.8-9.9c9.9-0.5,13.2,7.7,13,16.2
		c-0.1,3.3-3.9,6.6-6,9.9C81.2,90.9,79.3,91.2,77.4,91.4z M81.5,76.6c-2.6-1.6-3.9-3.1-5-3c-0.9,0.1-2,2-2.4,3.3
		c-0.1,0.5,1.6,2.2,2.4,2.2C77.8,79.1,79,78,81.5,76.6z"/>
	<path class="st1" d="M124.3,94.3c-4.7-6.8-9-10.2-8.8-13.3c0.5-8,3.2-17.1,13.2-16.3c4,0.3,11.4,8.8,10.5,11.2
		C137.2,81.8,131.2,86.3,124.3,94.3z M124.1,76.6c0.5,1.1,1,2.1,1.5,3.2c2.1-1,4.2-2,6.3-2.9c-0.5-1-1.3-3-1.4-2.9
		C128.3,74.6,126.2,75.6,124.1,76.6z"/>
	<path class="st1" d="M94.2,126c-8.1,5.9-13.1,11.4-19,12.9c-2.5,0.6-7.1-7.5-10.7-11.6c6-4.2,11.7-9,18.2-12.1
		C84,114.6,88.4,120.3,94.2,126z M80,125.3c-0.8-0.4-1.7-0.7-2.5-1.1c-1,0.7-3.1,1.8-3,2c0.7,1.8,1.8,3.4,2.8,5.1
		C78.3,129.3,79.2,127.3,80,125.3z"/>
	<path class="st1" d="M117.9,63.2c-7.4,6.4-12.2,10.6-16.9,14.8c-3.4-5.7-8.6-11.1-9.4-17.1c-0.4-2.9,7.4-9.6,11.6-9.7
		C107.2,51.2,111.3,57.5,117.9,63.2z M104.7,58.3c-1.8,0-3.5,0-5.3,0c0.3,3,0.7,6.1,1,9.1c1.1,0,2.2,0,3.3,0
		C104,64.4,104.4,61.3,104.7,58.3z"/>
	<path class="st1" d="M140.1,117.1c-6.2-6.8-10.3-11.3-14.3-15.8c5.9-3.6,11.4-8.6,17.8-10.1c2.2-0.5,9.1,8,9,12.2
		C152.3,107.4,145.8,111.2,140.1,117.1z M136.4,99.9c0.2,1.4,0.4,2.9,0.5,4.3c3-0.3,5.9-0.5,8.9-0.8c-0.1-1.4-0.3-2.9-0.4-4.3
		C142.3,99.4,139.3,99.7,136.4,99.9z"/>
	<path class="st1" d="M125.7,112.2c4.8,5.3,10.6,10,13.6,16.1c0.9,1.8-5.5,10.1-9.4,10.9c-10.4,2-13.4-6.9-14.4-14.9
		c-0.4-3.4,3.1-7.2,4.9-10.8C122.2,113,124,112.6,125.7,112.2z M126.4,123.6c-0.8,0.8-1.6,1.6-2.4,2.3c1.6,1.9,3.2,3.9,4.8,5.8
		c1.1-1.1,2.3-2.2,3.4-3.3C130.3,126.8,128.3,125.2,126.4,123.6z"/>
	<path class="st1" d="M63.6,86.4c6.4,6.6,10.6,11,14.8,15.4c-5.7,3.7-11.1,8.9-17.4,10.5c-2.3,0.5-9.3-7.7-9.3-11.9
		C51.6,96.4,58.1,92.4,63.6,86.4z M58.8,99.3c0.1,1.8,0.2,3.5,0.4,5.3c2.9-0.5,5.9-1,8.8-1.5c-0.1-1.1-0.1-2.2-0.2-3.2
		C64.8,99.6,61.8,99.4,58.8,99.3z"/>
	<path class="st1" d="M117.9,141c-6.9,5.4-11.3,11.5-15.3,11.2c-4.2-0.3-11.5-7.3-11.1-10.3c0.9-5.9,6.4-11,10-16.4
		C106.2,129.8,110.8,134.2,117.9,141z M104,136.1c-1.4,0.1-2.8,0.2-4.2,0.3c0.2,2.9,0.3,5.9,0.5,8.8c1.4-0.1,2.8-0.1,4.3-0.2
		C104.3,142,104.1,139.1,104,136.1z"/>
	<path class="st1" d="M80.3,61.2c-0.9-2.3-1.8-3.4-1.7-4.4c0.1-0.9,1.1-2.4,1.9-2.5s2.2,1,2.4,1.9C83.1,56.9,82,58,80.3,61.2z"/>
	<path class="st1" d="M125.5,56.9c-2.3,0.9-3.4,1.8-4.4,1.7c-0.9-0.1-2.4-1.1-2.5-1.9c-0.1-0.8,1-2.3,1.9-2.4
		C121.3,54.1,122.3,55.2,125.5,56.9z"/>
	<path class="st1" d="M61.5,83.6c-2.3,0.9-3.4,1.8-4.4,1.7c-0.9-0.1-2.4-1.1-2.5-1.9s1-2.3,1.9-2.4C57.3,80.7,58.4,81.8,61.5,83.6z"
		/>
	<path class="st1" d="M153.1,82.2c-4.1,2.2-5.2,3.3-6,3.1c-0.8-0.2-1.9-1.7-1.8-2.5c0.1-0.8,1.5-1.8,2.5-1.9
		C148.9,80.7,150.1,81.4,153.1,82.2z"/>
	<path class="st1" d="M96.3,98.5c-0.9-2.3-1.8-3.4-1.7-4.4c0.1-0.9,1.1-2.4,1.9-2.5s2.2,1,2.4,1.9C99.1,94.3,98,95.3,96.3,98.5z"/>
	<path class="st1" d="M106.5,88.1c2.2,4.1,3.3,5.2,3.1,6c-0.2,0.8-1.7,1.9-2.5,1.8s-1.8-1.5-1.9-2.5C105.1,92.2,105.7,91,106.5,88.1
		z"/>
	<path class="st1" d="M96.1,102.2c-2.2,0.9-3.4,1.8-4.4,1.7c-0.9-0.1-2.3-1.1-2.4-1.9s1-2.2,1.9-2.4C91.9,99.4,93,100.5,96.1,102.2z
		"/>
	<path class="st1" d="M113.2,96.9c0.9,2.3,1.8,3.4,1.7,4.5c-0.1,0.9-1.1,2.3-1.9,2.5c-0.7,0.1-2.2-1-2.4-1.9
		C110.4,101.2,111.4,100.1,113.2,96.9z"/>
	<path class="st1" d="M101.8,111.8c-3.4,1.8-4.5,2.9-5.3,2.7c-0.8-0.2-1.3-1.6-2-2.5c0.9-0.7,1.7-1.8,2.7-1.8
		C98.2,110.1,99.3,110.9,101.8,111.8z"/>
	<path class="st1" d="M113.1,111.5c-4.1,2.2-5.2,3.3-6,3.1c-0.8-0.2-1.3-1.6-2-2.5c0.9-0.7,1.7-1.7,2.7-1.9
		C108.9,110.1,110.2,110.7,113.1,111.5z"/>
	<path class="st1" d="M56.2,115.4c1.8,3.4,2.9,4.5,2.7,5.3s-1.6,1.3-2.5,2c-0.7-0.9-1.8-1.7-1.8-2.7C54.5,119,55.3,117.8,56.2,115.4
		z"/>
	<path class="st1" d="M146.9,125.2c-0.9-2.3-1.8-3.4-1.7-4.4c0.1-0.9,1.1-2.4,1.9-2.5c0.8-0.1,2.2,1,2.4,1.9
		C149.7,120.9,148.6,122,146.9,125.2z"/>
	<path class="st1" d="M82.8,142.1c1.8,3.4,2.9,4.5,2.7,5.3c-0.2,0.8-1.6,1.3-2.5,2c-0.7-0.9-1.8-1.7-1.8-2.7
		C81.1,145.7,81.9,144.5,82.8,142.1z"/>
	<path class="st1" d="M125.7,146.5c-3.4,1.8-4.5,2.9-5.3,2.7s-1.3-1.6-2-2.5c0.9-0.7,1.7-1.8,2.7-1.8
		C122.2,144.8,123.3,145.6,125.7,146.5z"/>
</g>
</svg>
