<?xml version="1.0" encoding="utf-8"?>
<!-- Generator: Adobe Illustrator 24.0.1, SVG Export Plug-In . SVG Version: 6.00 Build 0)  -->
<svg version="1.1" id="Layer_1" xmlns="http://www.w3.org/2000/svg" xmlns:xlink="http://www.w3.org/1999/xlink" x="0px" y="0px"
	 viewBox="0 0 177.4 177.5" style="enable-background:new 0 0 177.4 177.5;" xml:space="preserve">
<style type="text/css">
	.st0{fill:#E07A5F;}
</style>
<g>
	<path class="st0" d="M88.6,177.5C38.7,177.5,0,138.8,0,89C0,38.3,38.6-0.1,89.4,0c49.6,0.1,88,39.1,87.9,89.2
		C177.3,138.9,138.4,177.5,88.6,177.5z M88.9,7C45.4,6.5,7.2,44.6,7,88.5c-0.2,43.7,37.6,81.7,81.5,81.9
		c43.7,0.3,81.7-37.6,81.9-81.5C170.6,45.2,133.1,7.5,88.9,7z"/>
	<path class="st0" d="M106.5,158.6c-49.2,0.6-88.2-28.3-87.8-59.6c0.2-18.3,1.6-37,12.8-51.6C42.8,32.7,59,20.4,77.8,19.3
		C120,17,159,47.1,158.7,78.5c-0.2,18.3-0.9,37.8-13.1,51.3C133.7,143,116.6,151.4,106.5,158.6z M80.2,23.1
		c-14.4,9.9-28.8,17-39.5,27.8C29,62.8,25.6,79.7,27.6,96.5c1.9,16.2,10.3,29.9,22.8,40.2c13.1,10.7,28.9,14.8,45.7,13.2
		c17-1.6,30.8-10.8,41.2-23.5c10.6-12.9,14.6-29.4,12.5-46c-2-16.1-10-31.3-23.5-39.7C113.2,32.5,96.9,29.2,80.2,23.1z"/>
	<path class="st0" d="M64,78.4c-4.3-5.5-9.7-10.6-12.2-16.9c-0.7-1.7,6.8-9.7,10.8-9.9c9.9-0.5,13.2,7.7,13,16.2
		c-0.1,3.3-3.9,6.6-6,9.9C67.8,77.9,65.9,78.2,64,78.4z M68.1,63.6c-2.6-1.6-3.9-3.1-5-3c-0.9,0.1-2,2-2.4,3.3
		c-0.1,0.5,1.6,2.2,2.4,2.2C64.4,66.1,65.6,65,68.1,63.6z"/>
	<path class="st0" d="M110.9,81.3c-4.7-6.8-9-10.2-8.8-13.3c0.5-8,3.2-17.1,13.2-16.3c4,0.3,11.4,8.8,10.5,11.2
		C123.8,68.8,117.8,73.3,110.9,81.3z M110.7,63.6c0.5,1.1,1,2.1,1.5,3.2c2.1-1,4.2-2,6.3-2.9c-0.5-1-1.3-3-1.4-2.9
		C114.9,61.6,112.8,62.6,110.7,63.6z"/>
	<path class="st0" d="M80.8,113c-8.1,5.9-13.1,11.4-19,12.9c-2.5,0.6-7.1-7.5-10.7-11.6c6-4.2,11.7-9,18.2-12.1
		C70.6,101.6,75,107.3,80.8,113z M66.6,112.3c-0.8-0.4-1.7-0.7-2.5-1.1c-1,0.7-3.1,1.8-3,2c0.7,1.8,1.8,3.4,2.8,5.1
		C64.9,116.3,65.8,114.3,66.6,112.3z"/>
	<path class="st0" d="M104.5,50.2C97.1,56.6,92.3,60.8,87.6,65c-3.4-5.7-8.6-11.1-9.4-17.1c-0.4-2.9,7.4-9.6,11.6-9.7
		C93.8,38.2,97.9,44.5,104.5,50.2z M91.3,45.3c-1.8,0-3.5,0-5.3,0c0.3,3,0.7,6.1,1,9.1c1.1,0,2.2,0,3.3,0
		C90.6,51.4,91,48.3,91.3,45.3z"/>
	<path class="st0" d="M126.7,104.1c-6.2-6.8-10.3-11.3-14.3-15.8c5.9-3.6,11.4-8.6,17.8-10.1c2.2-0.5,9.1,8,9,12.2
		C138.9,94.4,132.4,98.2,126.7,104.1z M123,86.9c0.2,1.4,0.4,2.9,0.5,4.3c3-0.3,5.9-0.5,8.9-0.8c-0.1-1.4-0.3-2.9-0.4-4.3
		C128.9,86.4,125.9,86.7,123,86.9z"/>
	<path class="st0" d="M112.3,99.2c4.8,5.3,10.6,10,13.6,16.1c0.9,1.8-5.5,10.1-9.4,10.9c-10.4,2-13.4-6.9-14.4-14.9
		c-0.4-3.4,3.1-7.2,4.9-10.8C108.8,100,110.6,99.6,112.3,99.2z M113,110.6c-0.8,0.8-1.6,1.6-2.4,2.3c1.6,1.9,3.2,3.9,4.8,5.8
		c1.1-1.1,2.3-2.2,3.4-3.3C116.9,113.8,114.9,112.2,113,110.6z"/>
	<path class="st0" d="M50.2,73.4c6.4,6.6,10.6,11,14.8,15.4c-5.7,3.7-11.1,8.9-17.4,10.5c-2.3,0.5-9.3-7.7-9.3-11.9
		C38.2,83.4,44.7,79.4,50.2,73.4z M45.4,86.3c0.1,1.8,0.2,3.5,0.4,5.3c2.9-0.5,5.9-1,8.8-1.5c-0.1-1.1-0.1-2.2-0.2-3.2
		C51.4,86.6,48.4,86.4,45.4,86.3z"/>
	<path class="st0" d="M104.5,128c-6.9,5.4-11.3,11.5-15.3,11.2c-4.2-0.3-11.5-7.3-11.1-10.3c0.9-5.9,6.4-11,10-16.4
		C92.8,116.8,97.4,121.2,104.5,128z M90.6,123.1c-1.4,0.1-2.8,0.2-4.2,0.3c0.2,2.9,0.3,5.9,0.5,8.8c1.4-0.1,2.8-0.1,4.3-0.2
		C90.9,129,90.7,126.1,90.6,123.1z"/>
	<path class="st0" d="M66.9,48.2c-0.9-2.3-1.8-3.4-1.7-4.4c0.1-0.9,1.1-2.4,1.9-2.5c0.8-0.1,2.2,1,2.4,1.9
		C69.7,43.9,68.6,45,66.9,48.2z"/>
	<path class="st0" d="M112.1,43.9c-2.3,0.9-3.4,1.8-4.4,1.7c-0.9-0.1-2.4-1.1-2.5-1.9c-0.1-0.8,1-2.3,1.9-2.4
		C107.9,41.1,108.9,42.2,112.1,43.9z"/>
	<path class="st0" d="M48.1,70.6c-2.3,0.9-3.4,1.8-4.4,1.7c-0.9-0.1-2.4-1.1-2.5-1.9c-0.1-0.8,1-2.3,1.9-2.4
		C43.9,67.7,45,68.8,48.1,70.6z"/>
	<path class="st0" d="M139.7,69.2c-4.1,2.2-5.2,3.3-6,3.1c-0.8-0.2-1.9-1.7-1.8-2.5c0.1-0.8,1.5-1.8,2.5-1.9
		C135.5,67.7,136.7,68.4,139.7,69.2z"/>
	<path class="st0" d="M82.9,85.5c-0.9-2.3-1.8-3.4-1.7-4.4c0.1-0.9,1.1-2.4,1.9-2.5c0.8-0.1,2.2,1,2.4,1.9
		C85.7,81.3,84.6,82.3,82.9,85.5z"/>
	<path class="st0" d="M93.1,75.1c2.2,4.1,3.3,5.2,3.1,6c-0.2,0.8-1.7,1.9-2.5,1.8c-0.8-0.1-1.8-1.5-1.9-2.5
		C91.7,79.2,92.3,78,93.1,75.1z"/>
	<path class="st0" d="M82.7,89.2c-2.2,0.9-3.4,1.8-4.4,1.7c-0.9-0.1-2.3-1.1-2.4-1.9c-0.1-0.8,1-2.2,1.9-2.4
		C78.5,86.4,79.6,87.5,82.7,89.2z"/>
	<path class="st0" d="M99.8,83.9c0.9,2.3,1.8,3.4,1.7,4.5c-0.1,0.9-1.1,2.3-1.9,2.5c-0.7,0.1-2.2-1-2.4-1.9
		C97,88.2,98,87.1,99.8,83.9z"/>
	<path class="st0" d="M88.4,98.8c-3.4,1.8-4.5,2.9-5.3,2.7c-0.8-0.2-1.3-1.6-2-2.5c0.9-0.7,1.7-1.8,2.7-1.8
		C84.8,97.1,85.9,97.9,88.4,98.8z"/>
	<path class="st0" d="M99.7,98.5c-4.1,2.2-5.2,3.3-6,3.1c-0.8-0.2-1.3-1.6-2-2.5c0.9-0.7,1.7-1.7,2.7-1.9
		C95.5,97.1,96.8,97.7,99.7,98.5z"/>
	<path class="st0" d="M42.8,102.4c1.8,3.4,2.9,4.5,2.7,5.3c-0.2,0.8-1.6,1.3-2.5,2c-0.7-0.9-1.8-1.7-1.8-2.7
		C41.1,106,41.9,104.8,42.8,102.4z"/>
	<path class="st0" d="M133.5,112.2c-0.9-2.3-1.8-3.4-1.7-4.4c0.1-0.9,1.1-2.4,1.9-2.5c0.8-0.1,2.2,1,2.4,1.9
		C136.3,107.9,135.2,109,133.5,112.2z"/>
	<path class="st0" d="M69.4,129.1c1.8,3.4,2.9,4.5,2.7,5.3c-0.2,0.8-1.6,1.3-2.5,2c-0.7-0.9-1.8-1.7-1.8-2.7
		C67.7,132.7,68.5,131.5,69.4,129.1z"/>
	<path class="st0" d="M112.3,133.5c-3.4,1.8-4.5,2.9-5.3,2.7c-0.8-0.2-1.3-1.6-2-2.5c0.9-0.7,1.7-1.8,2.7-1.8
		C108.8,131.8,109.9,132.6,112.3,133.5z"/>
</g>
</svg>
