<?xml version="1.0" encoding="utf-8"?>
<!-- Generator: Adobe Illustrator 24.0.1, SVG Export Plug-In . SVG Version: 6.00 Build 0)  -->
<svg version="1.1" id="Layer_1" xmlns="http://www.w3.org/2000/svg" xmlns:xlink="http://www.w3.org/1999/xlink" x="0px" y="0px"
	 viewBox="0 0 103.9 99.2" style="enable-background:new 0 0 103.9 99.2;" xml:space="preserve">
<style type="text/css">
	.st0{fill:#E07A5F;}
</style>
<path class="st0" d="M55.2,2.3l9.9,30.6c0.5,1.4,1.8,2.3,3.2,2.3h32.2c3.3,0,4.7,4.2,2,6.1l-26,18.9c-1.2,0.9-1.7,2.4-1.2,3.8
	l9.9,30.6c1,3.1-2.6,5.7-5.2,3.8L54,79.6c-1.2-0.9-2.8-0.9-4,0l-26,18.9c-2.7,1.9-6.2-0.7-5.2-3.8l9.9-30.6c0.5-1.4,0-2.9-1.2-3.8
	l-26-18.9c-2.7-1.9-1.3-6.1,2-6.1h32.2c1.5,0,2.8-0.9,3.2-2.3l9.9-30.6C49.7-0.8,54.2-0.8,55.2,2.3z"/>
</svg>
